<?xml version="1.0" encoding="UTF-8" standalone="no"?>
<!DOCTYPE svg PUBLIC "-//W3C//DTD SVG 1.1//EN" "http://www.w3.org/Graphics/SVG/1.1/DTD/svg11.dtd">
<svg width="100%" height="100%" viewBox="0 0 24 24" version="1.1" xmlns="http://www.w3.org/2000/svg" xmlns:xlink="http://www.w3.org/1999/xlink" xml:space="preserve" xmlns:serif="http://www.serif.com/" style="fill-rule:evenodd;clip-rule:evenodd;stroke-linejoin:round;stroke-miterlimit:1.41421;">
    <rect id="Layer1" x="0" y="0" width="24" height="24" style="fill:rgb(1,158,219);"/>
    <g transform="matrix(0.0323779,0,0,0.0323779,3.74384,3.74389)">
        <path d="M489.305,185.463C480.951,177.154 467.444,177.191 459.135,185.544L202.687,443.379C169.416,476.65 115.379,476.65 82.046,443.334C48.738,410.009 48.738,355.972 82.05,322.66L346.089,57.234C366.861,36.463 400.632,36.463 421.464,57.279C442.29,78.105 442.29,111.872 421.459,132.704L202.727,351.434C202.713,351.448 202.701,351.464 202.687,351.478C194.354,359.765 180.887,359.754 172.571,351.438C164.241,343.108 164.241,329.607 172.571,321.277L278.151,215.675C286.481,207.343 286.48,193.835 278.148,185.505C269.816,177.175 256.308,177.176 247.978,185.508L142.399,291.108C117.408,316.099 117.408,356.615 142.401,381.607C167.393,406.599 207.909,406.599 232.902,381.607C232.931,381.578 232.954,381.547 232.982,381.518L451.628,162.872C489.122,125.378 489.122,64.596 451.628,27.102C414.129,-10.37 353.351,-10.37 315.879,27.102L51.84,292.53C1.906,342.464 1.906,423.509 51.876,473.504C101.879,523.481 182.925,523.481 232.898,473.508L489.387,215.633C497.695,207.279 497.658,193.772 489.305,185.463Z" style="fill:white;fill-rule:nonzero;"/>
    </g>
</svg>
